# xmcd
#
# Track frame offsets:
#	182
#	12470
#	25300
#	36915
#	48565
#	59280
#	70985
#	83370
#	95232
#	105507
#	116865
#	126817
#	137245
#	146975
#	160085
#	173472
#	185950
#	196230
#	208000
#	220182
#	231020
#	242030
#	256750
#	267027
#	276365
#
# Disc length: 3870 seconds
#
# Revision: 5
# Processed by: cddbd v1.5.2PL0 Copyright (c) Steve Scherf et al.
# Submitted via: EasyCDDAExtractor 11.1.0.1
#
DISCID=750f1c19
DTITLE=Various Artist - The Country Music Story Volume 2
DYEAR=1989
DGENRE=Country
TTITLE0=Billie Jo Spears - What I've Got In Mind
TTITLE1=Kenny Rogers - Ruby, Don't Take Your Love To Town
TTITLE2=George Jones - White Lightning
TTITLE3=Sandie Posey - Single Girl
TTITLE4=Ferlin Husky - The Wings Of A Dove
TTITLE5=Roger Miller - Little Green Apples
TTITLE6=Charlie Rich - My Heart Cries For You
TTITLE7=Johnny Cash - I Walk The Line
TTITLE8=Glen Campbell - Walk Right In
TTITLE9=Patsy Cline - Walking After Midnight
TTITLE10=Buck Owens - Rhythm And Booze
TTITLE11=Conway Twitty - Born To Sing The Blues
TTITLE12=Jerry Lee Lewis - Down The Line
TTITLE13=George Hamilton IV - Blues Eyes Crying In The Rain
TTITLE14=Alabama - Patches
TTITLE15=Dottie West - I Fall To Pieces
TTITLE16=Dave Dudley - Six Days On The Road
TTITLE17=Jeannie C Riley - Okie From Muskogee
TTITLE18=Johnny Cash - Folsom Prison Blues
TTITLE19=Glen Campbell - Redwing
TTITLE20=Patsy Cline - Just Out Of Reach
TTITLE21=George Jones - Cold Cold Heart
TTITLE22=Dave Dudley - Seven Lonely Days
TTITLE23=Jeannie C Riley - The Girl Most Likely
TTITLE24=Jimmy Dean - Release Me
EXTD=
EXTT0=
EXTT1=
EXTT2=
EXTT3=
EXTT4=
EXTT5=
EXTT6=
EXTT7=
EXTT8=
EXTT9=
EXTT10=
EXTT11=
EXTT12=
EXTT13=
EXTT14=
EXTT15=
EXTT16=
EXTT17=
EXTT18=
EXTT19=
EXTT20=
EXTT21=
EXTT22=
EXTT23=
EXTT24=
PLAYORDER=
